# AST/ASF file generated using VICON BodyLanguage
# -----------------------------------------------
:version 1.10
:name VICON
:units
  mass 1.0
  length 0.45
  angle deg
:documentation
   .ast/.asf automatically generated from VICON data using
   VICON BodyBuilder and BodyLanguage model FoxedUp or BRILLIANT.MOD
:root
   order TX TY TZ RX RY RZ
   axis XYZ
   position 0 0 0  
   orientation 0 0 0 
:bonedata
  begin
     id 1 
     name lhipjoint
     direction 0.662698 -0.695252 0.27831 
     length 2.53073 
     axis 0 0 0  XYZ
  end
  begin
     id 2 
     name lfemur
     direction 0.34202 -0.939693 0  
     length 7.16147  
     axis 0 0 20  XYZ
    dof rx ry rz
    limits (-160.0 20.0)
           (-70.0 70.0)
           (-60.0 70.0)
  end
  begin
     id 3 
     name ltibia
     direction 0.34202 -0.939693 0   
     length 7.63967   
     axis 0 0 20   XYZ
    dof rx
    limits (-10.0 170.0)
  end
  begin
     id 4 
     name lfoot
     direction 0.0938457 -0.257721 0.961651   
     length 1.89793   
     axis -90 7.62852e-016 20   XYZ
    dof rx rz
    limits (-45.0 90.0)
           (-70.0 20.0)
  end
  begin
     id 5 
     name ltoes
     direction -0.00116841 -0.0030592 0.999995   
     length 0.955649   
     axis -90 7.62852e-016 20   XYZ
    dof rx
    limits (-90.0 20.0)
  end
  begin
     id 6 
     name rhipjoint
     direction -0.649445 -0.705948 0.282592   
     length 2.49238  
     axis 0 0 0  XYZ 
  end
  begin
     id 7 
     name rfemur
     direction -0.34202 -0.939693 0   
     length 6.90728   
     axis 0 0 -20   XYZ
    dof rx ry rz
    limits (-160.0 20.0)
           (-70.0 70.0)
           (-70.0 60.0)
  end
  begin
     id 8 
     name rtibia
     direction -0.34202 -0.939693 0   
     length 7.72868   
     axis 0 0 -20   XYZ
    dof rx
    limits (-10.0 170.0)
 end
 begin
     id 9 
     name rfoot
     direction -0.0920068 -0.252865 0.963117   
     length 1.97476  
     axis -90 -7.62852e-016 -20   XYZ
    dof rx rz
    limits (-45.0 90.0)
           (-20.0 70.0)
  end
  begin
     id 10 
     name rtoes
     direction 0.000391322 0.00230649 0.999997   
     length 0.992641   
     axis -90 -7.62852e-016 -20   XYZ
    dof rx
    limits (-90.0 20.0)
  end
  begin
     id 11 
     name lowerback
     direction -0.00875327 0.998321 -0.0572635   
     length 2.20024   
     axis 0 0 0   XYZ
    dof rx ry rz
    limits (-20.0 45.0)
           (-30.0 30.0)
           (-30.0 30.0)
  end
  begin
     id 12 
     name upperback
     direction 0.00753931 0.999972 -0.000360425   
     length 2.20538   
     axis 0 0 0   XYZ
    dof rx ry rz
    limits (-20.0 45.0)
           (-30.0 30.0)
           (-30.0 30.0)
  end
  begin
     id 13 
     name thorax
     direction 0.0117767 0.999601 0.0256663   
     length 2.21508   
     axis 0 0 0   XYZ
    dof rx ry rz
    limits (-20.0 45.0)
           (-30.0 30.0)
           (-30.0 30.0)
  end
  begin
     id 14 
     name lowerneck
     direction 0.060228 0.994909 0.0807986   
     length 1.7607   
     axis 0 0 0   XYZ
    dof rx ry rz
    limits (-20.0 45.0)
           (-30.0 30.0)
           (-30.0 30.0)
  end
  begin
     id 15 
     name upperneck
     direction -0.0563647 0.959594 -0.275685   
     length 1.75612   
     axis 0 0 0   XYZ
    dof rx ry rz
    limits (-20.0 45.0)
           (-30.0 30.0)
           (-30.0 30.0)
  end
  begin
     id 16
     name head
     direction -0.0161544 0.99458 -0.102714  
     length 1.79288  
     axis 0 0 0   XYZ
    dof rx ry rz
    limits (-20.0 45.0)
           (-30.0 30.0)
           (-30.0 30.0)
  end
  begin
     id 17 
     name lclavicle
     direction 0.93913 0.332189 -0.087669  
     length 3.52087  
     axis 0 0 0   XYZ
    dof ry rz
    limits (-20.0 10.0)
           (0.0 20.0)
  end
  begin
     id 18 
     name lhumerus
     direction 1 -4.48974e-011 -2.70836e-027   
     length 5.35289   
     axis -180 -30 -90   XYZ
    dof rx ry rz
    limits (-60.0 90.0)
           (-90.0 90.0)
           (-90.0 90.0)
  end
  begin
     id 19
     name lradius
     direction 1 -4.48961e-011 -9.76021e-027   
     length 3.27727   
     axis -180 -30 -90   XYZ
    dof rx
    limits (-10.0 170.0)
  end
  begin
     id 20
     name lwrist
     direction 1 -4.49103e-011 -2.23668e-026   
     length 1.63864   
     axis 1.44924e-014 90 90   XYZ
    dof ry
    limits (-180.0 0.0)
 end
  begin
     id 21 
     name lhand
     direction 1 3.0697e-005 0.000161777   
     length 0.54443   
     axis 2.85318e-014 90 90   XYZ
    dof rx rz
    limits (-90.0 90.0)
           (-45.0 45.0)
  end
  begin
     id 22 
     name lfingers
     direction 1 -4.49027e-011 -8.9447e-026   
     length 0.438912   
     axis 5.70628e-014 90 90   XYZ
    dof rx
    limits (0.0 90.0)
  end
  begin
     id 23
     name lthumb
     direction 0.707058 2.6516e-005 0.707156   
     length 0.630274   
     axis -90 45 -3.53137e-014   XYZ
    dof rx rz
    limits (-45.0 45.0)
           (-45.0 45.0)
  end
  begin
     id 24 
     name rclavicle
     direction -0.95274 0.284984 -0.105215   
     length 3.43401  
     axis 0 0 0   XYZ 
    dof ry rz
    limits (-10.0 20.0)
           (-20.0 0.0)
  end
  begin
     id 25 
     name rhumerus
     direction -0.999999 -0.000575019 -0.00106829  
     length 5.52077   
     axis -180 30 90   XYZ
    dof rx ry rz
    limits (-90.0 60.0)
           (-90.0 90.0)
           (-90.0 90.0)
  end
  begin
     id 26 
     name rradius
     direction -1 -4.4879e-011 -6.35415e-027   
     length 3.32364   
     axis -180 30 90   XYZ
    dof rx
    limits (-10.0 170.0)
  end
  begin
     id 27 
     name rwrist
     direction -1 -4.49048e-011 -9.98542e-027   
     length 1.66182   
     axis 6.32482e-015 -90 -90   XYZ
    dof ry
    limits (-180.0 0.0)
  end
  begin
     id 28
     name rhand
     direction -1 -4.48978e-011 -1.99771e-026   
     length 0.732235   
     axis 1.27479e-014 -90 -90   XYZ
    dof rx rz
    limits (-90.0 90.0)
           (-45.0 45.0)
  end
  begin
     id 29
     name rfingers
     direction -1 -4.49144e-011 -3.99245e-026   
     length 0.590347   
     axis 2.5496e-014 -90 -90   XYZ
    dof rx
    limits (0.0 90.0)
  end
  begin
     id 30
     name rthumb
     direction -0.707107 -6.35121e-011 0.707107   
     length 0.847624   
     axis -90 -45 -2.82974e-014   XYZ
    dof rx rz
    limits (-45.0 45.0)
           (-45.0 45.0)
  end
:hierarchy
  begin
    root lhipjoint rhipjoint lowerback
    lhipjoint lfemur
    lfemur ltibia
    ltibia lfoot
    lfoot ltoes
    rhipjoint rfemur
    rfemur rtibia
    rtibia rfoot
    rfoot rtoes
    lowerback upperback
    upperback thorax
    thorax lowerneck lclavicle rclavicle
    lowerneck upperneck
    upperneck head
    lclavicle lhumerus
    lhumerus lradius
    lradius lwrist
    lwrist lhand lthumb
    lhand lfingers
    rclavicle rhumerus
    rhumerus rradius
    rradius rwrist
    rwrist rhand rthumb
    rhand rfingers
  end

#!OML:ASF G:\Work\Work\Patient Classification 1\Elijah\terrain1\Elijah.ASF
:FULLY-SPECIFIED
:DEGREES
67
root 15.9102 23.5834 -9.06938 7.86485 -3.34874 -4.27231
lowerback 6.11644 1.91153 3.89559
upperback -0.653366 2.87399 0.871696
thorax -3.96079 1.34998 -1.54939
lowerneck -18.4677 9.34693 9.0808
upperneck 17.1359 13.8392 -15.1583
head 10.3047 5.46912 -4.71222
rclavicle 3.57812e-015 9.34288e-015
rhumerus -36.2298 6.59369 -88.934
rradius 36.9801
rwrist -3.60278
rhand -13.8465 21.5258
rfingers 7.12502
rthumb 12.2771 -8.09383
lclavicle 3.57812e-015 9.34288e-015
lhumerus -47.1884 28.6321 62.1944
lradius 18.5954
lwrist -12.8944
lhand -11.323 29.0488
lfingers 7.12502
lthumb 14.7094 58.5069
rfemur -1.62967 -0.917713 27.4911
rtibia 20.0682
rfoot -3.61244 -0.462825
rtoes -18.391
lfemur -44.2071 -3.36252 -13.0122
ltibia 35.883
lfoot -10.2498 -4.78443
ltoes -12.464
68
root 15.9135 23.5742 -8.93567 7.75863 -3.64422 -4.23508
lowerback 4.95845 2.0936 3.89525
upperback 0.0543437 3.02976 0.685048
thorax -2.55808 1.46427 -1.68622
lowerneck -19.708 9.56437 8.4802
upperneck 18.2231 14.1968 -14.3144
head 10.8505 5.57711 -4.22468
rclavicle 1.33403e-014 1.02126e-014
rhumerus -35.4005 6.25108 -88.9582
rradius 36.8139
rwrist -3.51345
rhand -13.8224 21.686
rfingers 7.12502
rthumb 12.3004 -7.93221
lclavicle 1.33403e-014 1.02126e-014
lhumerus -45.9735 29.4366 62.189
lradius 18.2783
lwrist -13.7451
lhand -11.5042 28.148
lfingers 7.12502
lthumb 14.5348 57.6189
rfemur -0.794952 -0.728833 27.3495
rtibia 19.566
rfoot -3.31332 -0.439426
rtoes -18.5369
lfemur -43.6698 -3.48915 -12.8728
ltibia 35.2572
lfoot -10.2883 -4.49208
ltoes -11.2795
69
root 15.9161 23.5651 -8.80077 7.71866 -3.87576 -4.37073
lowerback 5.40699 2.10014 3.71646
upperback -0.325359 3.06098 0.683871
thorax -3.2098 1.46449 -1.61985
lowerneck -18.7329 9.40726 8.92293
upperneck 17.7778 13.9256 -14.6636
head 10.5367 5.51164 -4.49554
rclavicle 1.74061e-014 -4.07509e-015
rhumerus -36.1321 6.34888 -89.2187
rradius 36.9129
rwrist -3.71184
rhand -13.2997 20.8077
rfingers 7.12502
rthumb 12.8043 -8.77963
lclavicle 1.74061e-014 -4.07509e-015
lhumerus -46.389 29.0697 61.9988
lradius 18.4758
lwrist -13.5077
lhand -11.9452 28.7657
lfingers 7.12502
lthumb 14.1098 58.2667
rfemur -0.112855 -0.75228 27.3854
rtibia 19.2801
rfoot -3.04015 -0.264276
rtoes -19.2248
lfemur -43.2277 -3.3801 -12.7178
ltibia 34.7681
lfoot -9.98001 -4.42727
ltoes -10.9792
70
root 15.9252 23.5559 -8.65706 7.7158 -4.19001 -4.53634
lowerback 4.25174 2.6925 4.6942
upperback 1.25859 3.77829 -0.134955
thorax -0.771244 1.89071 -2.93771
lowerneck -23.7982 9.70636 8.25982
upperneck 19.0573 14.081 -13.3911
head 11.8031 5.38459 -3.76938
rclavicle 4.25399e-014 -2.38542e-015
rhumerus -33.1372 4.04758 -89.2752
rradius 36.6035
rwrist -3.7673
rhand -12.8488 19.8847
rfingers 7.12502
rthumb 13.239 -9.67484
lclavicle 4.25399e-014 -2.38542e-015
lhumerus -41.7111 29.6434 63.1617
lradius 17.5567
lwrist -14.7327
lhand -12.7873 28.6535
lfingers 7.12502
lthumb 13.2983 58.2092
rfemur 0.605162 -0.839617 27.3852
rtibia 18.9864
rfoot -2.78369 0.0968203
rtoes -20.3648
lfemur -42.8536 -3.07305 -12.6897
ltibia 34.5179
lfoot -9.8621 -4.27585
ltoes -13.0557
71
root 15.9296 23.5427 -8.53159 7.70469 -4.10999 -4.65943
lowerback 5.56288 1.78105 3.08832
upperback -1.16101 2.63906 1.02301
thorax -4.23074 1.24485 -0.91205
lowerneck -15.6246 9.47242 9.33971
upperneck 16.78 14.0842 -15.1699
head 9.70139 5.75146 -4.79946
rclavicle 7.71533e-015 -2.16675e-014
rhumerus -38.0903 7.66513 -89.812
rradius 36.8637
rwrist -4.14433
rhand -12.9426 20.1711
rfingers 7.12502
rthumb 13.1486 -9.3943
lclavicle 7.71533e-015 -2.16675e-014
lhumerus -48.348 29.4764 60.5235
lradius 18.3724
lwrist -13.7605
lhand -13.3917 27.733
lfingers 7.12502
lthumb 12.7156 57.3259
rfemur 1.29712 -1.03653 27.4443
rtibia 18.6326
rfoot -2.48163 0.16502
rtoes -21.3673
lfemur -42.7023 -3.00555 -12.6821
ltibia 34.5913
lfoot -9.08951 -4.33969
ltoes -14.5834
72
root 15.9402 23.5334 -8.39258 7.75408 -4.16517 -4.78525
lowerback 4.70693 1.96068 3.63108
upperback -0.18093 2.83285 0.659966
thorax -2.68219 1.36463 -1.54752
lowerneck -19.4894 9.84086 8.28643
upperneck 18.6466 14.5314 -13.5819
head 10.9184 5.78762 -3.87825
rclavicle -1.08586e-014 7.7526e-015
rhumerus -36.133 7.00331 -89.7543
rradius 36.2707
rwrist -4.12873
rhand -13.1817 20.6001
rfingers 7.12502
rthumb 12.918 -8.98005
lclavicle -1.08586e-014 7.7526e-015
lhumerus -46.1482 30.6027 60.5739
lradius 17.7603
lwrist -15.0285
lhand -13.6651 25.5051
lfingers 7.12502
lthumb 12.452 55.1142
rfemur 1.8392 -1.26243 27.4284
rtibia 18.3912
rfoot -2.18454 0.41218
rtoes -22.2549
lfemur -42.5897 -2.86466 -12.6832
ltibia 35.0118
lfoot -7.61321 -4.5913
ltoes -14.8921
73
root 15.9519 23.5269 -8.2385 7.77593 -4.27387 -4.96942
lowerback 4.6702 1.85512 3.70835
upperback -0.488721 2.70199 0.587117
thorax -2.97937 1.28858 -1.66286
lowerneck -18.9102 9.85454 8.54033
upperneck 18.9771 14.5181 -13.4188
head 10.9315 5.83236 -3.88607
rclavicle -1.27968e-014 -1.39149e-015
rhumerus -36.8048 7.25231 -90.1984
rradius 35.9381
rwrist -4.15758
rhand -13.2153 20.4772
rfingers 7.12502
rthumb 12.8857 -9.10505
lclavicle -1.27968e-014 -1.39149e-015
lhumerus -46.3277 29.0947 61.2699
lradius 18.6206
lwrist -13.6014
lhand -13.6168 27.4585
lfingers 7.12502
lthumb 12.4986 57.0647
rfemur 2.34304 -1.29553 27.4707
rtibia 18.33
rfoot -1.92906 0.712572
rtoes -22.7222
lfemur -42.4008 -2.58268 -12.7034
ltibia 35.8104
lfoot -6.34092 -5.09127
ltoes -15.0177
74
root 15.9517 23.5118 -8.11036 7.64776 -3.86887 -4.9916
lowerback 4.19862 1.82407 3.4407
upperback 0.0535346 2.61188 0.66241
thorax -2.17513 1.26904 -1.4002
lowerneck -19.7901 9.90952 8.11436
upperneck 19.1102 14.6701 -13.3471
head 11.1259 5.83072 -3.73538
rclavicle 2.23633e-016 -9.14409e-015
rhumerus -36.1379 6.85071 -89.846
rradius 35.5777
rwrist -3.84626
rhand -13.3294 20.4918
rfingers 7.12502
rthumb 12.7757 -9.09733
lclavicle 2.23633e-016 -9.14409e-015
lhumerus -44.9817 29.5767 61.9611
lradius 18.4345
lwrist -14.2208
lhand -14.0281 26.8389
lfingers 7.12502
lthumb 12.102 56.4689
rfemur 2.86804 -1.3458 27.526
rtibia 18.3877
rfoot -1.56758 0.632755
rtoes -22.2585
lfemur -42.3326 -2.56239 -12.9125
ltibia 36.8999
lfoot -5.62209 -5.86176
ltoes -13.749
75
root 15.9573 23.493 -7.98271 7.62833 -3.63495 -5.07452
lowerback 4.51918 1.6553 3.36794
upperback -0.0913019 2.39962 0.600851
thorax -2.51475 1.15624 -1.4253
lowerneck -20.119 10.2976 7.91286
upperneck 19.4889 15.2211 -12.9646
head 11.3397 6.07566 -3.45125
rclavicle -1.98785e-015 -5.1684e-015
rhumerus -36.4603 6.68149 -90.0182
rradius 35.3582
rwrist -3.50632
rhand -13.3298 20.5294
rfingers 7.12502
rthumb 12.7753 -9.05974
lclavicle -1.98785e-015 -5.1684e-015
lhumerus -44.574 30.1754 61.586
lradius 18.0755
lwrist -14.8992
lhand -14.3814 27.2056
lfingers 7.12502
lthumb 11.7614 56.8553
rfemur 3.19269 -1.37849 27.5569
rtibia 18.5741
rfoot -1.02997 0.724499
rtoes -21.194
lfemur -42.4603 -2.39863 -13.0805
ltibia 38.0905
lfoot -6.33052 -6.61969
ltoes -14.5806
76
root 15.9672 23.4826 -7.8389 7.63711 -3.63694 -5.23014
lowerback 4.73017 1.59369 3.39517
upperback -0.199942 2.33032 0.579115
thorax -2.74667 1.11593 -1.46792
lowerneck -20.6446 10.5851 7.41645
upperneck 19.8371 15.6486 -12.3769
head 11.5149 6.25853 -3.06087
rclavicle -1.06847e-014 -9.54166e-015
rhumerus -36.5971 6.52469 -90.0357
rradius 35.1245
rwrist -3.43308
rhand -13.4913 20.9081
rfingers 7.12502
rthumb 12.6196 -8.69066
lclavicle -1.06847e-014 -9.54166e-015
lhumerus -44.1842 31.1332 61.0549
lradius 17.5468
lwrist -16.126
lhand -14.6357 27.1884
lfingers 7.12502
lthumb 11.5161 56.852
rfemur 3.45365 -1.21517 27.62
rtibia 18.9362
rfoot -0.612237 0.857255
rtoes -21.0661
lfemur -42.5557 -2.17686 -13.1215
ltibia 39.2123
lfoot -6.69901 -6.96862
ltoes -13.3648
77
root 15.9754 23.4827 -7.68014 7.46603 -3.73788 -5.13202
lowerback 4.95893 1.72467 3.08697
upperback -0.868356 2.50356 0.285679
thorax -3.55759 1.18385 -1.63206
lowerneck -18.2273 10.1396 8.67557
upperneck 19.1804 14.8308 -12.9291
head 10.877 6.06119 -3.69939
rclavicle -1.26725e-014 9.14409e-015
rhumerus -38.2543 5.59891 -90.3634
rradius 34.9636
rwrist -3.08665
rhand -13.9873 21.4139
rfingers 7.12502
rthumb 12.1414 -8.21382
lclavicle -1.26725e-014 9.14409e-015
lhumerus -44.5734 28.8396 61.4113
lradius 18.0961
lwrist -15.0163
lhand -14.4138 28.3961
lfingers 7.12502
lthumb 11.7301 58.0476
rfemur 3.85553 -0.913848 27.4217
rtibia 19.4628
rfoot -0.463681 0.770124
rtoes -22.4068
lfemur -42.3536 -2.1546 -13.3414
ltibia 40.1666
lfoot -7.16848 -6.98241
ltoes -12.6096
78
root 15.977 23.478 -7.53762 7.24816 -3.67386 -5.1149
lowerback 5.65826 1.96282 3.25967
upperback -0.479922 2.83255 -0.183949
thorax -3.50069 1.3444 -2.25684
lowerneck -20.1362 9.27696 9.00232
upperneck 18.7402 13.4148 -13.3526
head 10.9634 5.32332 -4.10177
rclavicle 2.87244e-014 -4.77083e-015
rhumerus -37.4555 4.04785 -90.3277
rradius 34.5524
rwrist -2.56727
rhand -14.1587 21.4392
rfingers 7.12502
rthumb 11.9761 -8.1982
lclavicle 2.87244e-014 -4.77083e-015
lhumerus -42.2994 27.7355 62.6429
lradius 18.1946
lwrist -14.6416
lhand -14.5594 27.4755
lfingers 7.12502
lthumb 11.5897 57.135
rfemur 4.22734 -0.516273 27.4428
rtibia 19.9663
rfoot -0.0706967 0.298248
rtoes -23.672
lfemur -42.1782 -2.2545 -13.4083
ltibia 40.9604
lfoot -7.49791 -6.88143
ltoes -11.3781
79
root 15.9966 23.4704 -7.41851 7.34626 -3.18411 -4.9614
lowerback 4.30901 1.89092 3.01311
upperback 0.633265 2.65676 -0.0359594
thorax -1.62409 1.30847 -1.8713
lowerneck -22.7043 9.69975 7.26799
upperneck 19.8615 14.2837 -12.2526
head 11.7351 5.55465 -3.19129
rclavicle -8.34896e-015 9.14409e-015
rhumerus -35.819 3.97593 -89.6196
rradius 34.1342
rwrist -2.19394
rhand -14.4283 21.7729
rfingers 7.12502
rthumb 11.7161 -7.87944
lclavicle -8.34896e-015 9.14409e-015
lhumerus -39.3595 28.9552 64.3876
lradius 17.8844
lwrist -15.1795
lhand -14.7192 27.4696
lfingers 7.12502
lthumb 11.4356 57.1377
rfemur 4.08621 -0.893057 27.1958
rtibia 20.5766
rfoot 0.644578 0.370413
rtoes -23.93
lfemur -42.4361 -2.70074 -13.6599
ltibia 41.5639
lfoot -7.62228 -6.89221
ltoes -8.44056
80
root 15.9979 23.4684 -7.25983 7.27411 -3.14642 -4.92313
lowerback 4.87145 1.73127 2.47116
upperback -0.104144 2.44744 -0.0184497
thorax -2.73294 1.18464 -1.57682
lowerneck -21.861 10.0318 7.21868
upperneck 20.6672 14.7844 -11.6956
head 11.8762 5.8477 -2.91367
rclavicle -2.23633e-014 4.77083e-015
rhumerus -37.4799 4.23692 -89.9209
rradius 33.9434
rwrist -1.93853
rhand -14.8483 22.3473
rfingers 7.12502
rthumb 11.3111 -7.32766
lclavicle -2.23633e-014 4.77083e-015
lhumerus -40.5156 28.0254 64.0413
lradius 18.3031
lwrist -14.7136
lhand -15.1054 26.367
lfingers 7.12502
lthumb 11.0631 56.0554
rfemur 4.1907 -0.715431 27.1147
rtibia 21.2754
rfoot 1.42556 0.377478
rtoes -23.3589
lfemur -42.1922 -2.7378 -13.8146
ltibia 42.1073
lfoot -8.0131 -6.88012
ltoes -11.33
81
root 16.0175 23.4661 -7.11388 7.2335 -2.6408 -4.6595
lowerback 4.22105 1.73688 2.20717
upperback 0.192062 2.4149 -0.210691
thorax -2.06716 1.18267 -1.59435
lowerneck -21.9465 9.88925 7.29604
upperneck 20.5171 14.5415 -11.7482
head 11.82 5.74138 -2.98925
rclavicle -1.87852e-014 -5.1684e-015
rhumerus -37.2779 3.69728 -89.7937
rradius 33.6694
rwrist -2.18905
rhand -14.7213 22.0682
rfingers 7.12502
rthumb 11.4335 -7.60006
lclavicle -1.87852e-014 -5.1684e-015
lhumerus -39.1026 28.0044 64.6418
lradius 17.9904
lwrist -15.5001
lhand -15.618 26.565
lfingers 7.12502
lthumb 10.5686 56.2793
rfemur 4.18751 -1.27608 26.704
rtibia 22.0556
rfoot 2.19523 0.677201
rtoes -22.8044
lfemur -42.0264 -3.19667 -14.2989
ltibia 42.6218
lfoot -8.3265 -6.9242
ltoes -12.9949
